<?xml version="1.0" encoding="iso-8859-1"?>
<!-- Generator: Adobe Illustrator 16.0.0, SVG Export Plug-In . SVG Version: 6.00 Build 0)  -->
<!DOCTYPE svg PUBLIC "-//W3C//DTD SVG 1.1//EN" "http://www.w3.org/Graphics/SVG/1.1/DTD/svg11.dtd">
<svg version="1.1" id="Layer_1" xmlns="http://www.w3.org/2000/svg" xmlns:xlink="http://www.w3.org/1999/xlink" x="0px" y="0px"
	 width="24px" height="30px" viewBox="0 0 24 30" style="enable-background:new 0 0 24 30;" xml:space="preserve">
<g id="documents-2">
	<path d="M21.003,3V1c0-0.553-0.448-1-1-1h-1c-0.552,0-1,0.447-1,1v2h-2.001V1c0-0.553-0.447-1-1-1h-1c-0.552,0-1,0.447-1,1v2
		h-2.001V1c0-0.553-0.448-1-1-1h-1c-0.552,0-1,0.447-1,1v2H6V1c0-0.553-0.448-1-1-1H4C3.448,0,3,0.447,3,1v2C1.343,3,0,4.343,0,6v21
		c0,1.657,1.343,3,3,3h18c1.657,0,3-1.343,3-3V5.997C24,4.342,22.658,3,21.003,3z M3.001,9c0-0.553,0.448-1,1-1h12
		c0.552,0,1,0.447,1,1s-0.448,1-1,1h-12C3.449,10,3.001,9.553,3.001,9z M3.001,14c0-0.553,0.448-1,1-1h14c0.552,0,1,0.447,1,1
		s-0.448,1-1,1h-14C3.449,15,3.001,14.553,3.001,14z M3.001,19c0-0.553,0.448-1,1-1h12c0.552,0,1,0.447,1,1s-0.448,1-1,1h-12
		C3.449,20,3.001,19.553,3.001,19z M21.001,24c0,0.553-0.448,1-1,1h-16c-0.552,0-1-0.447-1-1s0.448-1,1-1h16
		C20.553,23,21.001,23.447,21.001,24z"/>
</g>
<g id="Layer_1_1_">
</g>
</svg>
