<?xml version="1.0" encoding="iso-8859-1"?>
<!-- Generator: Adobe Illustrator 16.0.0, SVG Export Plug-In . SVG Version: 6.00 Build 0)  -->
<!DOCTYPE svg PUBLIC "-//W3C//DTD SVG 1.1//EN" "http://www.w3.org/Graphics/SVG/1.1/DTD/svg11.dtd">
<svg version="1.1" xmlns="http://www.w3.org/2000/svg" xmlns:xlink="http://www.w3.org/1999/xlink" x="0px" y="0px"
	 width="22.619px" height="30.093px" viewBox="0 0 22.619 30.093" style="enable-background:new 0 0 22.619 30.093;"
	 xml:space="preserve">
<g id="angel" style="fill:red">
	<path d="M21.254,11.061c-1.218-1.603-3.211-2.56-5.331-2.56c-1.805,0-3.497,0.765-4.61,2.019c-1.115-1.254-2.816-2.019-4.631-2.019
		c-2.116,0-4.106,0.955-5.321,2.555c-1.015,1.335-1.987,3.777-0.85,7.872c2.279,7.021,10.242,11.062,10.785,11.163v0.002
		c0.001,0,0.003,0,0.003,0c0.005,0,0.012,0,0.015,0v-0.001c0.723-0.063,8.599-4.412,10.801-11.199
		C23.241,14.838,22.269,12.396,21.254,11.061z"/>
	<path d="M11.308,6c1.503,0,9-0.145,9-3s-7.497-3-9-3c-1.503,0-9,0.145-9,3S9.805,6,11.308,6z M11.308,2c3.542,0,5.866,0.57,6.728,1
		c-0.862,0.43-3.186,1-6.728,1C7.766,4,5.443,3.43,4.581,3C5.443,2.57,7.766,2,11.308,2z"/>
</g>
<g id="Layer_1">
</g>
</svg>
