<?xml version="1.0" encoding="iso-8859-1"?>
<!-- Generator: Adobe Illustrator 16.0.0, SVG Export Plug-In . SVG Version: 6.00 Build 0)  -->
<!DOCTYPE svg PUBLIC "-//W3C//DTD SVG 1.1//EN" "http://www.w3.org/Graphics/SVG/1.1/DTD/svg11.dtd">
<svg version="1.1" xmlns="http://www.w3.org/2000/svg" xmlns:xlink="http://www.w3.org/1999/xlink" x="0px" y="0px"
	 width="22.429px" height="30.41px" viewBox="0 0 22.429 30.41" style="enable-background:new 0 0 22.429 30.41;"
	 xml:space="preserve">
<g id="love-2" style="fill: rgb(255, 119, 0)">
	<path d="M21.075,2.538C19.867,0.949,17.891,0,15.788,0c-1.789,0-3.468,0.758-4.57,2.002C10.113,0.758,8.426,0,6.626,0
		C4.528,0,2.555,0.947,1.349,2.533c-1.005,1.323-1.97,3.746-0.842,7.806c0.176,0.543,0.396,1.061,0.635,1.567
		c0.986-0.572,2.046-0.884,3.086-0.884c1.312,0,2.566,0.478,3.629,1.383c0.947,0.805,1.226,0.998,2.29,1.595
		c0.213,0.119,0.417,0.175,0.643,0.175c0.532,0,1.132-0.31,1.767-0.638l0.199-0.103c0.362-0.185,0.748-0.278,1.147-0.278h0.001
		c0.833,0,1.568,0.409,2.218,0.77c0.56,0.311,1.087,0.604,1.558,0.604c0.192-0.015,0.724-0.281,0.924-0.382
		c0.129-0.064,0.24-0.12,0.326-0.157c0.322-0.142,0.653-0.262,0.986-0.36c0.122-0.035,0.249-0.054,0.377-0.054
		c0.016,0,0.029,0.005,0.045,0.006c0.653-1.016,1.211-2.107,1.591-3.278C23.045,6.283,22.081,3.861,21.075,2.538z"/>
	<path d="M20.293,14.577c-0.032,0-0.064,0.004-0.096,0.014c-0.282,0.083-0.57,0.187-0.867,0.316
		c-0.326,0.144-1.14,0.623-1.642,0.623c-1.418,0-2.586-1.374-3.784-1.374c-0.229,0-0.459,0.05-0.692,0.169
		c-0.771,0.394-1.576,0.85-2.422,0.85c-0.369,0-0.745-0.087-1.131-0.303c-1.109-0.621-1.449-0.855-2.449-1.705
		c-0.939-0.8-1.968-1.145-2.981-1.145c-0.972-0.001-1.931,0.317-2.787,0.856c-0.438,0.276-0.571,0.854-0.3,1.293
		c1.795,2.903,4.357,5.135,6.447,6.607c1.328,0.937,2.004,2.555,1.733,4.157c-0.261,1.551-0.417,3.014-0.417,3.474
		c0,1.104,0.896,2,2,2c1.104,0,2-0.896,2-2c0-0.427-0.135-1.72-0.363-3.145c-0.258-1.61,0.435-3.227,1.778-4.151
		c1.934-1.33,4.381-3.382,6.252-5.997c0.084-0.119,0.085-0.277,0-0.396C20.506,14.629,20.401,14.577,20.293,14.577z M10.905,29.66
		c-0.689,0-1.25-0.561-1.25-1.25c0-0.138,0.112-0.25,0.25-0.25s0.25,0.112,0.25,0.25c0,0.413,0.337,0.75,0.75,0.75
		c0.138,0,0.25,0.112,0.25,0.25S11.042,29.66,10.905,29.66z"/>
</g>
<g id="Layer_1">
</g>
</svg>
