<?xml version="1.0" encoding="iso-8859-1"?>
<!-- Generator: Adobe Illustrator 16.0.0, SVG Export Plug-In . SVG Version: 6.00 Build 0)  -->
<!DOCTYPE svg PUBLIC "-//W3C//DTD SVG 1.1//EN" "http://www.w3.org/Graphics/SVG/1.1/DTD/svg11.dtd">
<svg version="1.1" xmlns="http://www.w3.org/2000/svg" xmlns:xlink="http://www.w3.org/1999/xlink" x="0px" y="0px"
	 width="30.427px" height="32px" viewBox="0 0 30.427 32" style="enable-background:new 0 0 30.427 32;" xml:space="preserve">
<g id="task-management">
	<path d="M6,16h12c0.553,0,1-0.447,1-1s-0.447-1-1-1H6c-0.553,0-1,0.447-1,1S5.447,16,6,16z"/>
	<path d="M30.038,11.951l-1.563-1.563c-0.424-0.423-1.029-0.511-1.375-0.211l3.149,3.15C30.55,12.981,30.461,12.376,30.038,11.951z"
		/>
	<rect x="24.675" y="11.547" transform="matrix(-0.7056 -0.7086 0.7086 -0.7056 29.7439 48.7147)" width="0.634" height="13.262"/>
	<polygon points="27.652,11.475 18.259,20.803 19.62,22.143 28.969,12.791 	"/>
	<rect x="21.938" y="8.846" transform="matrix(-0.705 -0.7092 0.7092 -0.705 27.0298 42.1948)" width="0.705" height="13.261"/>
	<polygon points="15.963,23.48 15.517,24.911 16.938,24.454 	"/>
	<polygon points="20.065,23.453 16.941,20.359 16.21,22.834 17.505,24.234 	"/>
	<path d="M22,27c0,1.654-1.346,3-3,3H5c-1.654,0-3-1.346-3-3V10c0-1.654,1.346-3,3-3h1c0,1.657,1.343,3,3,3h6c1.657,0,3-1.343,3-3h1
		c1.654,0,3,1.346,3,3v3.853l2-2V10c0-2.762-2.238-5-5-5h-1.277C17.548,4.7,17.3,4.452,17,4.277V2c0-1.104-0.896-2-2-2H9
		C7.896,0,7,0.896,7,2v2.277C6.7,4.452,6.452,4.7,6.277,5H5c-2.762,0-5,2.238-5,5v17c0,2.762,2.238,5,5,5h14c2.762,0,5-2.238,5-5
		v-5.967l-2,2V27z M10,2h4c0.553,0,1,0.447,1,1s-0.447,1-1,1h-4C9.447,4,9,3.553,9,3S9.447,2,10,2z"/>
	<path d="M16.646,19.207L17.853,18H6c-0.553,0-1,0.447-1,1s0.447,1,1,1h10.023C16.152,19.728,16.571,19.281,16.646,19.207z"/>
	<path d="M5,23c0,0.553,0.447,1,1,1h8.753c0.151-0.481,0.377-1.202,0.626-2H6C5.447,22,5,22.447,5,23z"/>
</g>
<g id="Layer_1">
</g>
</svg>
