<?xml version="1.0" encoding="iso-8859-1"?>
<!-- Generator: Adobe Illustrator 16.0.0, SVG Export Plug-In . SVG Version: 6.00 Build 0)  -->
<!DOCTYPE svg PUBLIC "-//W3C//DTD SVG 1.1//EN" "http://www.w3.org/Graphics/SVG/1.1/DTD/svg11.dtd">
<svg version="1.1" xmlns="http://www.w3.org/2000/svg" xmlns:xlink="http://www.w3.org/1999/xlink" x="0px" y="0px"
	 width="22.619px" height="32px" viewBox="0 0 22.619 32" style="enable-background:new 0 0 22.619 32;" xml:space="preserve">
<g id="secret-love" style="fill:#ffa3a3">
	<path d="M6.81,9.419V7.977C6.81,5.784,8.593,4,10.785,4h1.049c2.192,0,3.976,1.784,3.976,3.977v1.441
		c0.038-0.001,0.075-0.01,0.113-0.01c1.39,0,2.728,0.371,3.887,1.026V7.977C19.81,3.578,16.231,0,11.834,0h-1.049
		C6.388,0,2.81,3.578,2.81,7.977v2.452c1.155-0.651,2.488-1.021,3.873-1.021C6.726,9.408,6.767,9.418,6.81,9.419z"/>
	<path d="M21.254,12.968c-1.218-1.603-3.211-2.56-5.331-2.56c-1.805,0-3.497,0.765-4.609,2.019
		c-1.115-1.254-2.816-2.019-4.631-2.019c-2.116,0-4.106,0.955-5.321,2.555c-1.015,1.335-1.987,3.777-0.85,7.872
		c2.279,7.021,10.242,11.062,10.785,11.163V32H11.3c0.005,0,0.012,0,0.015,0v-0.001c0.723-0.063,8.599-4.412,10.801-11.199
		C23.241,16.745,22.269,14.303,21.254,12.968z M12.81,21.488v2.535c0,0.539-0.437,0.977-0.976,0.977h-1.049
		c-0.539,0-0.976-0.438-0.976-0.977v-2.535c-0.604-0.456-1-1.173-1-1.988c0-1.381,1.119-2.5,2.5-2.5s2.5,1.119,2.5,2.5
		C13.81,20.315,13.413,21.032,12.81,21.488z"/>
</g>
<g id="Layer_1">
</g>
</svg>
